<mxfile host="65bd71144e" scale="4" border="0">
    <diagram id="uQzkj0GxWRIt09j_zSgi" name="Page-1">
        <mxGraphModel dx="758" dy="1275" grid="1" gridSize="10" guides="1" tooltips="1" connect="1" arrows="1" fold="1" page="1" pageScale="1" pageWidth="583" pageHeight="827" math="0" shadow="0">
            <root>
                <mxCell id="0"/>
                <mxCell id="1" parent="0"/>
                <mxCell id="24" value="lst" style="rounded=0;whiteSpace=wrap;html=1;shadow=0;strokeColor=#000000;labelPosition=left;verticalLabelPosition=middle;align=right;verticalAlign=middle;fontFamily=Courier New;fontStyle=1" parent="1" vertex="1">
                    <mxGeometry x="140" y="-30" width="30" height="30" as="geometry"/>
                </mxCell>
                <mxCell id="28" style="edgeStyle=orthogonalEdgeStyle;curved=1;rounded=0;sketch=0;orthogonalLoop=1;jettySize=auto;html=1;entryX=0;entryY=0.5;entryDx=0;entryDy=0;startArrow=oval;startFill=1;sourcePerimeterSpacing=-20;strokeWidth=2;fontFamily=Courier New;" parent="1" source="24" target="30" edge="1">
                    <mxGeometry relative="1" as="geometry">
                        <mxPoint x="230" y="-15" as="targetPoint"/>
                    </mxGeometry>
                </mxCell>
                <mxCell id="37" value="" style="group" parent="1" vertex="1" connectable="0">
                    <mxGeometry x="170" y="-30" width="100" height="70" as="geometry"/>
                </mxCell>
                <mxCell id="30" value="Liste" style="text;html=1;fillColor=#d5e8d4;align=center;verticalAlign=middle;whiteSpace=wrap;rounded=0;shadow=1;strokeColor=#82b366;fontFamily=Courier New;" parent="37" vertex="1">
                    <mxGeometry x="60" width="40" height="30" as="geometry"/>
                </mxCell>
                <mxCell id="31" value="tete" style="text;html=1;strokeColor=none;fillColor=none;align=right;verticalAlign=middle;whiteSpace=wrap;rounded=0;shadow=0;fontFamily=Courier New;" parent="37" vertex="1">
                    <mxGeometry y="30" width="60" height="40" as="geometry"/>
                </mxCell>
                <mxCell id="33" value="" style="rounded=0;whiteSpace=wrap;html=1;shadow=1;fontFamily=Courier New;" parent="37" vertex="1">
                    <mxGeometry x="60" y="30" width="40" height="40" as="geometry"/>
                </mxCell>
                <mxCell id="34" value="" style="rounded=0;whiteSpace=wrap;html=1;shadow=0;strokeColor=#000000;fontFamily=Courier New;" parent="37" vertex="1">
                    <mxGeometry x="60" y="30" width="40" height="40" as="geometry"/>
                </mxCell>
                <mxCell id="43" style="edgeStyle=orthogonalEdgeStyle;curved=1;rounded=0;sketch=0;orthogonalLoop=1;jettySize=auto;html=1;shadow=0;startArrow=oval;startFill=1;sourcePerimeterSpacing=-20;strokeWidth=2;" parent="1" source="34" target="44" edge="1">
                    <mxGeometry relative="1" as="geometry">
                        <mxPoint x="200" y="90" as="targetPoint"/>
                    </mxGeometry>
                </mxCell>
                <mxCell id="44" value="None&lt;font style=&quot;font-size: 14px;&quot;&gt;&lt;br style=&quot;font-size: 14px;&quot;&gt;&lt;/font&gt;" style="text;html=1;align=center;verticalAlign=middle;resizable=0;points=[];autosize=1;strokeColor=none;fontFamily=Courier New;fontSize=14;fontStyle=1;fontColor=#990000;" vertex="1" parent="1">
                    <mxGeometry x="360" y="10" width="50" height="20" as="geometry"/>
                </mxCell>
                <mxCell id="45" value="lst = Liste()" style="text;html=1;align=center;verticalAlign=middle;resizable=0;points=[];autosize=1;strokeColor=none;fontSize=12;fontFamily=Courier New;fontColor=#000099;" vertex="1" parent="1">
                    <mxGeometry x="300" y="-40" width="110" height="20" as="geometry"/>
                </mxCell>
            </root>
        </mxGraphModel>
    </diagram>
</mxfile>